<svg height='300px' width='300px'  fill="#000000" xmlns="http://www.w3.org/2000/svg" data-name="Layer 1" viewBox="0 0 48 48" x="0px" y="0px"><title>calendar-10</title><path d="M32.29,21.29l-9.35,9.3-2.23-2.22a1,1,0,1,0-1.42,1.42l2.94,2.92a1,1,0,0,0,.71.29,1,1,0,0,0,.7-.29l10.07-10a1,1,0,0,0-1.42-1.42Z"></path><path d="M32.09,25.93a1,1,0,0,0-.59,1.28,8,8,0,1,1-3.79-4.3,1,1,0,1,0,.93-1.77,10,10,0,1,0,4.74,5.38A1,1,0,0,0,32.09,25.93Z"></path><path d="M43,2H39V1a1,1,0,0,0-2,0V2H25V1a1,1,0,0,0-2,0V2H11V1A1,1,0,0,0,9,1V2H5A5,5,0,0,0,0,7V43a5,5,0,0,0,5,5H43a5,5,0,0,0,5-5V7A5,5,0,0,0,43,2Zm3,41a3,3,0,0,1-3,3H5a3,3,0,0,1-3-3V7A3,3,0,0,1,5,4H9V7a1,1,0,0,0,2,0V4H23V7a1,1,0,0,0,2,0V4H37V7a1,1,0,0,0,2,0V4h4a3,3,0,0,1,3,3Z"></path><path d="M40,13H8a1,1,0,0,0,0,2H40a1,1,0,0,0,0-2Z"></path></svg>