<?xml version="1.0" encoding="utf-8"?>
<!-- Generator: Adobe Illustrator 16.0.0, SVG Export Plug-In . SVG Version: 6.00 Build 0)  -->
<!DOCTYPE svg PUBLIC "-//W3C//DTD SVG 1.1//EN" "http://www.w3.org/Graphics/SVG/1.1/DTD/svg11.dtd">
<svg version="1.1" id="Layer_1" xmlns="http://www.w3.org/2000/svg" xmlns:xlink="http://www.w3.org/1999/xlink" x="0px" y="0px"
	 width="600px" height="600px" viewBox="0 0 600 600" enable-background="new 0 0 600 600" xml:space="preserve">
<g>
	<g>
		<g>
			<rect x="211.174" y="201.313" width="19.752" height="19.741"/>
		</g>
	</g>
	<g>
		<g>
			<rect x="211.174" y="240.785" width="19.752" height="19.742"/>
		</g>
	</g>
	<g>
		<g>
			<rect x="211.174" y="280.258" width="19.752" height="19.742"/>
		</g>
	</g>
	<g>
		<g>
			<rect x="211.174" y="319.73" width="19.752" height="19.753"/>
		</g>
	</g>
	<g>
		<g>
			<rect x="250.656" y="201.313" width="19.73" height="19.741"/>
		</g>
	</g>
	<g>
		<g>
			<rect x="250.656" y="240.785" width="19.73" height="19.742"/>
		</g>
	</g>
	<g>
		<g>
			<rect x="250.656" y="280.258" width="19.73" height="19.742"/>
		</g>
	</g>
	<g>
		<g>
			<rect x="250.656" y="319.73" width="19.73" height="19.753"/>
		</g>
	</g>
	<g>
		<g>
			<rect x="290.129" y="201.313" width="19.73" height="19.741"/>
		</g>
	</g>
	<g>
		<g>
			<rect x="290.129" y="240.785" width="19.73" height="19.742"/>
		</g>
	</g>
	<g>
		<g>
			<rect x="290.129" y="280.258" width="19.73" height="19.742"/>
		</g>
	</g>
	<g>
		<g>
			<rect x="290.129" y="319.73" width="19.73" height="19.753"/>
		</g>
	</g>
	<g>
		<g>
			<rect x="329.613" y="201.313" width="19.73" height="19.741"/>
		</g>
	</g>
	<g>
		<g>
			<rect x="250.656" y="161.83" width="19.73" height="19.741"/>
		</g>
	</g>
	<g>
		<g>
			<rect x="290.129" y="161.83" width="19.73" height="19.741"/>
		</g>
	</g>
	<g>
		<g>
			<rect x="329.613" y="161.83" width="19.73" height="19.741"/>
		</g>
	</g>
	<g>
		<g>
			<rect x="329.613" y="240.785" width="19.73" height="19.742"/>
		</g>
	</g>
	<g>
		<g>
			<rect x="329.613" y="280.258" width="19.73" height="19.742"/>
		</g>
	</g>
	<g>
		<g>
			<rect x="329.613" y="319.73" width="19.73" height="19.753"/>
		</g>
	</g>
	<g>
		<g>
			<rect x="369.086" y="201.313" width="19.73" height="19.741"/>
		</g>
	</g>
	<g>
		<g>
			<rect x="369.086" y="240.785" width="19.73" height="19.742"/>
		</g>
	</g>
	<g>
		<g>
			<rect x="369.086" y="280.258" width="19.73" height="19.742"/>
		</g>
	</g>
	<g>
		<g>
			<rect x="369.086" y="319.73" width="19.73" height="19.753"/>
		</g>
	</g>
	<g>
		<g>
			<path d="M586.211,151.97h-0.01H438.17V13.8c0-5.443-4.428-9.86-9.871-9.86c0,0,0,0-0.01,0H171.701
				c-5.443-0.011-9.871,4.406-9.871,9.85c0,0.011,0,0.011,0,0.011v138.17H13.801c-5.443,0-9.861,4.405-9.861,9.86l0,0v355.285
				c-0.01,5.443,4.406,9.859,9.85,9.871c0.012,0,0.012,0,0.012,0h20.635c-0.584,3.257-0.883,6.559-0.895,9.871V586.2
				c0,5.443,4.406,9.86,9.85,9.86h0.021H556.6c5.443,0.011,9.859-4.406,9.859-9.85V586.2v-49.343
				c-0.012-3.313-0.32-6.614-0.883-9.871h20.625c5.443,0,9.859-4.406,9.859-9.86c0,0,0,0,0-0.011V161.83
				C596.082,156.387,591.654,151.97,586.211,151.97z M428.289,428.299c0,10.898-8.834,19.742-19.73,19.742
				c-10.898,0-19.742-8.844-19.742-19.742c0-10.908,8.844-19.741,19.742-19.741C419.445,408.568,428.289,417.391,428.289,428.299z
				 M191.443,408.558c10.896,0,19.73,8.833,19.73,19.741c0,10.898-8.834,19.742-19.73,19.742c-10.898,0-19.742-8.844-19.742-19.742
				C171.711,417.391,180.545,408.568,191.443,408.558z M132.229,576.329H53.271v-39.472c0-21.807,17.678-39.484,39.473-39.484
				c21.797,0,39.484,17.678,39.484,39.484V576.329z M73.014,457.9c0-10.908,8.844-19.73,19.73-19.73
				c10.91,0,19.754,8.822,19.754,19.73c0,10.909-8.844,19.742-19.754,19.742C81.857,477.621,73.025,468.799,73.014,457.9z
				 M133.719,494.193c-3.709-3.588-7.883-6.669-12.41-9.175c15.049-15.778,14.475-40.765-1.303-55.813
				c-15.756-15.061-40.742-14.476-55.803,1.291c-14.563,15.26-14.563,39.264,0,54.522c-9.43,5.222-17.246,12.907-22.645,22.226
				H23.67V171.7h138.16v230.763c-13.547,15.204-13.096,38.291,1.061,52.942C148.084,463.599,137.484,477.709,133.719,494.193z
				 M230.926,576.329h-78.955v-69.085c0-21.795,17.666-39.473,39.473-39.473s39.482,17.678,39.482,39.473V576.329z M349.344,576.329
				h-98.688v-69.085c0-27.25,22.094-49.344,49.344-49.344s49.344,22.094,49.344,49.344V576.329z M270.387,408.558
				c0-16.353,13.262-29.612,29.613-29.612s29.613,13.26,29.613,29.612S316.352,438.17,300,438.17
				C283.658,438.148,270.41,424.898,270.387,408.558z M360.109,473.325c-6.604-11.648-16.441-21.154-28.311-27.349
				c20.824-17.556,23.496-48.692,5.939-69.527c-17.543-20.846-48.68-23.518-69.525-5.962c-20.846,17.566-23.508,48.692-5.951,69.538
				c1.811,2.152,3.797,4.141,5.951,5.951c-11.869,6.194-21.707,15.7-28.311,27.349c-5.199-7.408-11.99-13.536-19.896-17.92
				c15.127-15.479,14.828-40.3-0.641-55.427c-9.959-9.738-24.355-13.459-37.793-9.749V23.671h236.846v366.559
				c-3.213-0.895-6.525-1.369-9.859-1.414c-21.74-0.055-39.418,17.522-39.473,39.274c-0.033,10.169,3.887,19.962,10.92,27.315
				C372.1,459.789,365.299,465.917,360.109,473.325z M448.041,536.857v39.472h-78.955v-69.085c0-21.795,17.666-39.473,39.473-39.473
				c21.805,0,39.482,17.678,39.482,39.473V536.857z M546.717,576.329h-78.945v-39.472c0-21.807,17.678-39.484,39.473-39.484
				s39.473,17.678,39.473,39.484V576.329z M487.502,457.9c0-10.908,8.844-19.73,19.742-19.73c10.908,0,19.754,8.822,19.754,19.73
				c0,10.909-8.846,19.742-19.754,19.742C496.346,477.621,487.525,468.799,487.502,457.9z M576.33,507.244h-17.877
				c-5.41-9.318-13.227-17.004-22.645-22.226c15.049-15.778,14.463-40.765-1.303-55.813c-15.779-15.061-40.754-14.476-55.814,1.291
				c-14.553,15.26-14.553,39.264,0,54.522c-4.527,2.506-8.689,5.587-12.422,9.175c-3.73-16.484-14.363-30.606-29.148-38.788
				c14.133-14.651,14.598-37.738,1.049-52.953V171.7h138.16V507.244L576.33,507.244z"/>
		</g>
	</g>
	<g>
		<g>
			<rect x="467.771" y="230.926" width="19.73" height="157.89"/>
		</g>
	</g>
	<g>
		<g>
			<rect x="526.998" y="230.926" width="19.719" height="157.89"/>
		</g>
	</g>
	<g>
		<g>
			<rect x="53.271" y="230.926" width="19.742" height="157.89"/>
		</g>
	</g>
	<g>
		<g>
			<rect x="112.498" y="230.926" width="19.73" height="157.89"/>
		</g>
	</g>
	<g>
		<g>
			<path d="M359.225,43.412c-0.01,0-0.01,0-0.01,0h-118.43c-5.443,0-9.859,4.405-9.859,9.86l0,0v78.956
				c-0.021,5.443,4.406,9.87,9.85,9.87h0.01h118.43c5.443,0,9.871-4.405,9.871-9.859v-0.011V53.272
				C369.086,47.829,364.68,43.412,359.225,43.412z M349.344,122.368h-98.688V63.143h98.688V122.368z"/>
		</g>
	</g>
</g>
</svg>
