<?xml version="1.0" encoding="utf-8"?>
<!-- Generator: Adobe Illustrator 16.0.0, SVG Export Plug-In . SVG Version: 6.00 Build 0)  -->
<!DOCTYPE svg PUBLIC "-//W3C//DTD SVG 1.1//EN" "http://www.w3.org/Graphics/SVG/1.1/DTD/svg11.dtd">
<svg version="1.1" id="Layer_1" xmlns="http://www.w3.org/2000/svg" xmlns:xlink="http://www.w3.org/1999/xlink" x="0px" y="0px"
	 width="600px" height="600px" viewBox="0 0 600 600" enable-background="new 0 0 600 600" xml:space="preserve">
<g>
	<g>
		<path d="M563.186,149.604H36.803c-20.725,0-37.595-16.87-37.595-37.6V36.809c0-20.731,16.87-37.601,37.595-37.601h526.383
			c20.737,0,37.606,16.87,37.606,37.601v75.195C600.792,132.734,583.923,149.604,563.186,149.604z M36.803,24.271
			c-6.916,0-12.531,5.615-12.531,12.537v75.195c0,6.916,5.615,12.531,12.531,12.531h526.383c6.916,0,12.543-5.616,12.543-12.531
			V36.809c0-6.922-5.627-12.537-12.543-12.537H36.803z"/>
	</g>
	<g>
		<path d="M237.331,600.792H36.803c-20.725,0-37.595-16.869-37.595-37.601V237.336c0-20.731,16.87-37.6,37.595-37.6h200.528
			c20.726,0,37.606,16.869,37.606,37.6v325.855C274.938,583.923,258.057,600.792,237.331,600.792z M36.803,224.799
			c-6.916,0-12.531,5.616-12.531,12.537v325.855c0,6.922,5.615,12.537,12.531,12.537h200.528c6.916,0,12.531-5.615,12.531-12.537
			V237.336c0-6.921-5.615-12.537-12.531-12.537H36.803z"/>
	</g>
	<g>
		<path d="M563.186,375.195H362.658c-20.726,0-37.595-16.869-37.595-37.601V237.336c0-20.731,16.869-37.6,37.595-37.6h200.527
			c20.737,0,37.606,16.869,37.606,37.6v100.258C600.792,358.326,583.923,375.195,563.186,375.195z M362.658,224.799
			c-6.916,0-12.531,5.616-12.531,12.537v100.258c0,6.922,5.615,12.532,12.531,12.532h200.527c6.916,0,12.543-5.61,12.543-12.532
			V237.336c0-6.921-5.627-12.537-12.543-12.537H362.658z"/>
	</g>
	<g>
		<path d="M563.186,600.792H362.658c-20.726,0-37.595-16.869-37.595-37.601V462.928c0-20.731,16.869-37.601,37.595-37.601h200.527
			c20.737,0,37.606,16.869,37.606,37.601v100.264C600.792,583.923,583.923,600.792,563.186,600.792z M362.658,450.391
			c-6.916,0-12.531,5.615-12.531,12.537v100.264c0,6.922,5.615,12.537,12.531,12.537h200.527c6.916,0,12.543-5.615,12.543-12.537
			V462.928c0-6.922-5.627-12.537-12.543-12.537H362.658z"/>
	</g>
</g>
</svg>
