<svg height='300px' width='300px'  fill="#000000" xmlns="http://www.w3.org/2000/svg" viewBox="0 0 512 512" x="0px" y="0px"><rect x="160" y="112" width="32" height="16"></rect><path d="M192,200h8a24.0275,24.0275,0,0,0,24-24V160H208v16a8.00917,8.00917,0,0,1-8,8h-8Z"></path><circle cx="176" cy="144" r="8"></circle><rect x="224" y="112" width="32" height="16"></rect><circle cx="240" cy="144" r="8"></circle><path d="M488,368h-8V168a24.0275,24.0275,0,0,0-24-24H350.627a23.84338,23.84338,0,0,0-16.9707,7.0293l-54.627,54.62695c-.41016.41016-.79737.83643-1.17383,1.27A79.48405,79.48405,0,0,0,288,168V80a64.07207,64.07207,0,0,0-64-64H200a31.9704,31.9704,0,0,0-25.59546,12.81689A23.87319,23.87319,0,0,0,160,24a32.03667,32.03667,0,0,0-32,32V168a79.5328,79.5328,0,0,0,14.64014,46.04541l-19.46778,19.46777L53.86426,270.833A71.90892,71.90892,0,0,0,16,334.22656V488a8.00039,8.00039,0,0,0,8,8H488a8.00039,8.00039,0,0,0,8-8V376A8.00039,8.00039,0,0,0,488,368Zm-56,32a32.03667,32.03667,0,0,0-32,32H288a32.03667,32.03667,0,0,0-32-32V368a32.03667,32.03667,0,0,0,32-32H400a32.03667,32.03667,0,0,0,32,32Zm0,16v16H416A16.01833,16.01833,0,0,1,432,416ZM177.32983,79.04321A43.936,43.936,0,0,0,212,96h59.999L272,168a64,64,0,0,1-128,0V96h1.37012A38.61872,38.61872,0,0,0,177.32983,79.04321Zm65.186,234.03638-10.1272-40.51025,13.69068-34.22779a80.39969,80.39969,0,0,0,16.76611-12.18164l15.42016,15.42017ZM208,248a79.8906,79.8906,0,0,0,17.7915-2.019L218.584,264H197.416l-7.20752-18.019A79.8906,79.8906,0,0,0,208,248Zm-9.75415,32h19.5083l13.76709,55.0686L208,382.11133,184.47876,335.0686Zm93.22168-29.04639L354.5498,284.9209A55.8726,55.8726,0,0,1,382.14307,320H256.94434ZM272,336a16.01833,16.01833,0,0,1-16,16V336Zm-16,80a16.01833,16.01833,0,0,1,16,16H256Zm176-64a16.01833,16.01833,0,0,1-16-16h16Zm48,32v16a16.01833,16.01833,0,0,1-16-16ZM290.34375,216.9707,336,171.31445V200a8.00917,8.00917,0,0,1-8,8H312v16h16a24.0275,24.0275,0,0,0,24-24V160H456a8.00917,8.00917,0,0,1,8,8V368H448V328a8.00039,8.00039,0,0,0-8-8H398.57812a71.90154,71.90154,0,0,0-5.21582-16H448V288H383.21094a71.9725,71.9725,0,0,0-18.99463-16H384V256H334.58887l-41.76123-22.48682L288,228.68555V222.627A7.94368,7.94368,0,0,1,290.34375,216.9707ZM200,32h24a48.05375,48.05375,0,0,1,48,48H212a28.03146,28.03146,0,0,1-28-28V48A16.01833,16.01833,0,0,1,200,32Zm-40,8a8.00917,8.00917,0,0,1,8,8v9.37012A22.65506,22.65506,0,0,1,145.37012,80H144V56A16.01833,16.01833,0,0,1,160,40Zm-6.84546,186.15991a80.39969,80.39969,0,0,0,16.76611,12.18164l13.69068,34.22779-10.1272,40.51025-35.74975-71.49951ZM32,334.22656A55.92691,55.92691,0,0,1,61.4502,284.9209l63.08227-33.96729,76.31226,152.62451a8.00009,8.00009,0,0,0,14.31054,0L240,353.88867V440a8.00039,8.00039,0,0,0,8,8h40v32H88V384H72v96H32ZM304,464a16.01833,16.01833,0,0,1,16,16H304Zm32,16a32.03667,32.03667,0,0,0-32-32H440a8.00039,8.00039,0,0,0,8-8V384a32.03667,32.03667,0,0,0,32,32v32a32.03667,32.03667,0,0,0-32,32Zm144,0H464a16.01833,16.01833,0,0,1,16-16Z"></path><path d="M344,352a32,32,0,1,0,32,32A32.03667,32.03667,0,0,0,344,352Zm0,48a16,16,0,1,1,16-16A16.01833,16.01833,0,0,1,344,400Z"></path><rect x="280" y="376" width="16" height="16"></rect><rect x="400" y="376" width="16" height="16"></rect><rect x="408" y="176" width="40" height="16"></rect><rect x="368" y="176" width="24" height="16"></rect><rect x="400" y="208" width="48" height="16"></rect><rect x="368" y="208" width="16" height="16"></rect><rect x="400" y="256" width="48" height="16"></rect></svg>