<?xml version="1.0" encoding="utf-8"?>
<!-- Generator: Adobe Illustrator 16.0.0, SVG Export Plug-In . SVG Version: 6.00 Build 0)  -->
<!DOCTYPE svg PUBLIC "-//W3C//DTD SVG 1.1//EN" "http://www.w3.org/Graphics/SVG/1.1/DTD/svg11.dtd">
<svg version="1.1" id="Layer_1" xmlns="http://www.w3.org/2000/svg" xmlns:xlink="http://www.w3.org/1999/xlink" x="0px" y="0px"
	 width="600px" height="600px" viewBox="0 0 600 600" enable-background="new 0 0 600 600" xml:space="preserve">
<g>
	<path d="M581.032,487.607c-4.688,0-8.481,3.793-8.481,8.493v56.653c0,0.803-0.636,1.428-1.43,1.428h-32.233V430.277
		c0-4.68-3.793-8.483-8.472-8.483c-4.691,0-8.484,3.804-8.484,8.483v123.904H459.65l16.853-18.53
		c2.604-2.865,3.835-6.93,3.294-10.88c-0.022-0.084-0.032-0.178-0.054-0.261l-18.937-111.939l3.48-5.253l0.908,0.646
		c3.106,2.198,7.076,3.012,10.911,2.042c3.763-0.938,6.92-3.471,8.661-6.94l0,0l19.28-38.645l44.032,17.061
		c1.739,0.75,24.471,11.172,24.471,38.27v36.757c0,4.69,3.783,8.483,8.481,8.483c4.68,0,8.475-3.793,8.475-8.483v-36.747
		c0-39.155-33.568-53.412-34.998-53.984c-0.052-0.021-0.103-0.042-0.166-0.063l-74.995-29.056v-15.435
		c11.705-9.421,19.926-22.989,22.408-38.466c5.836-0.729,11.244-3.075,15.745-6.951c6.442-5.534,10.141-13.601,10.141-22.126
		c0-6.795-2.354-13.298-6.575-18.468v-22.896c0-44.782-36.444-81.217-81.237-81.217c-20.115,0-38.521,7.348-52.714,19.5
		c-0.188-6.493-2.512-12.684-6.564-17.645v-22.896c0-44.782-36.436-81.217-81.229-81.217c-44.792,0-81.237,36.435-81.237,81.217
		v23.49c-4.075,4.877-6.348,10.745-6.545,16.978c-9.066-7.743-19.915-13.569-31.995-16.748c-4.533-1.198-9.171,1.511-10.369,6.034
		c-1.188,4.533,1.511,9.171,6.044,10.37c28.18,7.409,47.847,32.974,47.847,62.134v12.694c-0.355-0.084-1.532-0.281-1.584-0.292
		c-0.114-2.397-0.72-3.846-2.021-5.732c-2.18-3.126-6.077-7.003-18.614-20.488c-4.47-4.795-11.692-5.681-17.194-2.096
		c-21.47,14.028-47.566,21.178-71.787,19.771c-7.889-0.469-12.817,2.991-14.912,8.682c-0.188,0.03-2.294,0.447-2.408,0.479v-13.017
		c0-28.118,18.802-53.422,45.7-61.529c4.48-1.345,7.023-6.076,5.669-10.568c-1.345-4.481-6.087-7.024-10.557-5.68
		c-16.374,4.93-31.079,15.205-41.427,28.899c-10.693,14.174-16.353,31.078-16.353,48.878v23.491
		c-4.271,5.106-6.586,11.297-6.586,17.873c0,14.518,10.703,27.19,25.939,29.077c2.502,15.111,10.703,29.607,23.646,39.446v14.454
		l-74.921,29.056c-0.054,0.021-0.104,0.043-0.156,0.063c-1.43,0.572-35.008,14.829-35.008,53.975v133.002
		c0,10.161,8.255,18.404,18.396,18.404h261.2c3.658,0,7.044-1.084,9.911-2.929c2.867,1.845,6.263,2.929,9.911,2.929h261.21
		c10.141,0,18.386-8.243,18.386-18.404v-56.653C589.507,491.4,585.712,487.607,581.032,487.607z M96.108,265.228
		c-4.972-1.803-8.15-6.398-8.15-11.547c0-4.992,3.617-9.099,8.15-11.036V265.228z M488.154,358.263L471.5,391.634
		c0,0-18.479-13.132-18.738-13.319c7.973-9.849,4.23-5.221,20.813-25.7L488.154,358.263z M440.496,366.496l-21.939-27.076v-8.139
		c7.13,2.47,14.811,3.605,22.043,3.605l0,0l0,0c7.482,0,15.038-1.417,21.793-3.949v8.535L440.496,366.496z M450.449,397.49
		l-3.117,4.689h-13.683l-3.118-4.689l9.965-7.077L450.449,397.49z M299.979,264.238l-21.928-27.076v-8.14
		c7.098,2.46,14.769,3.606,22.032,3.606h0.01l0,0c7.463,0,15.028-1.417,21.783-3.95v8.546L299.979,264.238z M309.932,295.232
		l-3.116,4.689h-13.673l-3.117-4.689l9.953-7.076L309.932,295.232z M233.186,179.687c1.386,0.375,2.814,0.636,4.252,0.813
		c2.512,15.111,10.703,29.608,23.647,39.468v14.444l-17.312,6.701c-0.999-2.095-2.261-4.086-3.741-5.909v-22.887
		C240.032,200.801,237.604,189.743,233.186,179.687z M345.053,170.702c0,24.825-20.249,44.96-44.96,44.96
		c-27.878,0-46.513-21.604-46.513-44.96v-39.728c26.785,1.073,54.611-6.857,77.362-21.021c7.648,8.202,12.193,12.954,14.11,15.174
		C345.053,146.243,345.053,154.403,345.053,170.702z M361.228,180.499c1.449-0.188,2.866-0.438,4.253-0.823
		c-4.409,9.994-6.879,21.042-6.879,32.641v23.491c-1.303,1.553-2.419,3.21-3.356,4.96l-16.403-6.367v-15.444
		C350.546,209.534,358.768,195.965,361.228,180.499z M266.88,250.377l20.821,25.7l-14.203,10.078
		c-0.012,0.021-0.012,0.021-0.021,0.031l-4.502,3.188l-16.654-33.37L266.88,250.377z M319.499,267.094l13.558-16.737l14.591,5.648
		l-16.644,33.37l-4.521-3.199c0,0-0.012,0-0.012-0.021l-14.235-10.1L319.499,267.094z M323.781,305.05l0.896,0.646
		c3.179,2.262,7.161,3.002,10.912,2.053c3.773-0.938,6.93-3.47,8.66-6.94l0,0l14.32-28.69c4.92,6.065,12.037,9.744,19.353,10.661
		c2.596,16.227,11.351,30.056,23.679,39.426v14.454l-72.118,27.962l-9.192-54.317L323.781,305.05z M407.387,352.625l20.821,25.699
		c-9.108,6.473-18.259,12.976-18.728,13.31l-16.644-33.36L407.387,352.625z M485.56,272.961c0.01,24.22-19.667,44.959-44.96,44.959
		c-28.826,0-46.501-22.573-46.501-44.959v-39.728c26.595,1.063,54.453-6.774,77.351-21.031c7.639,8.212,12.203,12.976,14.11,15.185
		C485.56,248.501,485.56,256.65,485.56,272.961z M510.676,253.681c0,5.159-3.188,9.744-8.15,11.547v-23.073
		C507.665,244.03,510.676,248.72,510.676,253.681z M375.567,212.316c0-35.424,28.827-64.26,64.262-64.26s64.271,28.836,64.271,64.26
		v12.694c-0.396-0.084-1.447-0.271-1.594-0.292c-0.115-2.397-0.721-3.856-2.033-5.732c-2.22-3.199-6.076-7.014-18.604-20.488
		c-4.377-4.701-11.6-5.753-17.185-2.096c-20.907,13.652-47.313,21.365-72.432,19.739c-7.066-0.459-12.173,2.991-14.289,8.713
		c-0.188,0.03-2.282,0.458-2.396,0.479V212.316L375.567,212.316z M377.131,242.645v22.573c-4.981-1.803-8.15-6.399-8.15-11.537
		C368.98,248.688,372.598,244.593,377.131,242.645z M370.169,151.423c0,3.574-1.542,6.951-4.241,9.265
		c-1.156,1-2.479,1.771-3.908,2.293v-23.074C367.096,141.741,370.169,146.409,370.169,151.423z M299.313,45.809
		c35.444,0,64.271,28.815,64.271,64.25v12.693c-0.386-0.083-1.449-0.271-1.594-0.291c-0.116-2.596-0.866-4.19-2.398-6.254
		c-2.271-3.074-6.45-7.306-18.237-19.968c-4.45-4.773-11.673-5.69-17.186-2.084c-22.063,14.402-48.848,21.427-73.109,19.687
		c-5.94-0.448-11.525,3.137-13.599,8.754c-0.188,0.031-2.282,0.448-2.397,0.479v-13.017l0,0
		C235.063,74.624,263.879,45.809,299.313,45.809z M236.615,140.386v22.595c-4.973-1.804-8.15-6.41-8.15-11.558
		C228.465,146.462,232.06,142.345,236.615,140.386z M221.503,242.154c4.752,1.73,7.795,5.867,8.099,10.797
		c0.375,5.472-2.981,10.422-8.099,12.267V242.154z M220.721,282.778c7.994-1.001,15.341-5.222,20.156-11.704l14.842,29.733l0,0
		c1.729,3.471,4.887,6.003,8.649,6.94c3.72,0.938,7.712,0.229,10.911-2.053l0.908-0.646l3.48,5.253l-9.183,54.297l-72.159-27.941
		v-15.435l0,0C210.342,311.531,218.305,297.849,220.721,282.778z M159.472,366.496l-21.937-27.076v-8.139
		c7.098,2.449,14.777,3.605,22.041,3.605l0,0c7.588,0,15.144-1.448,21.793-3.949v8.535L159.472,366.496z M169.425,397.49
		l-3.116,4.689h-13.672l-3.128-4.689l9.963-7.077L169.425,397.49z M192.551,352.614l14.58,5.659l-16.644,33.36l-4.523-3.21
		c0,0-0.01,0-0.01-0.011l-14.226-10.099L192.551,352.614z M113.076,272.961v-39.728c26.918,1.073,54.766-6.972,77.35-21.031
		c7.576,8.129,12.192,12.976,14.121,15.185c0,21.114,0,29.264,0,45.574c0,24.668-20.125,44.959-44.971,44.959
		C131.908,317.92,113.076,296.565,113.076,272.961z M126.363,352.625l20.822,25.699l-14.206,10.089
		c-0.01,0.011-0.01,0.011-0.01,0.011l-4.512,3.21l-16.653-33.36L126.363,352.625z M78.078,554.182V430.277
		c0-4.68-3.793-8.483-8.481-8.483c-4.682,0-8.484,3.804-8.484,8.483v123.904H28.889c-0.792,0-1.428-0.625-1.428-1.417V419.752
		c0-27.254,22.948-37.623,24.439-38.27l44.011-17.061l19.279,38.645l0,0c1.741,3.47,4.898,6.003,8.672,6.94
		c3.72,0.938,7.702,0.229,10.91-2.042l0.908-0.646l3.48,5.253l-18.948,111.939c-0.01,0.083-0.02,0.177-0.041,0.261
		c-0.541,3.95,0.678,8.015,3.283,10.88l16.863,18.53H78.078L78.078,554.182z M137.232,525.584l18.021-106.438h8.431l18.02,106.438
		l-22.231,24.46L137.232,525.584z M291.525,552.754c0,0.803-0.645,1.428-1.437,1.428h-32.224V430.277
		c0-4.68-3.793-8.483-8.484-8.483c-4.68,0-8.472,3.804-8.472,8.483v123.904h-62.282l16.854-18.53
		c2.604-2.865,3.834-6.93,3.281-10.88c-0.01-0.084-0.02-0.178-0.041-0.261l-18.946-111.939l3.491-5.253l0.908,0.646
		c2.27,1.615,4.949,2.449,7.68,2.449c4.972,0,9.609-2.783,11.892-7.348l0,0l19.271-38.645l44.052,17.061
		c12.829,5.575,24.458,19.989,24.458,38.27V552.754L291.525,552.754z M300,388.934c-3.513-5.669-8.191-10.9-13.83-15.371
		l9.589-56.674h8.44l9.6,56.694C308.004,378.189,303.386,383.474,300,388.934z M359.113,554.182L359.113,554.182V430.277
		c0-4.68-3.805-8.483-8.494-8.483c-4.68,0-8.475,3.804-8.475,8.483v123.904h-32.233c-0.782,0-1.427-0.625-1.427-1.417V419.752
		c0-10.078,3.166-19.375,9.898-27.181c4.492-5.147,10.443-9.316,14.54-11.089l44.021-17.061l19.279,38.645c0,0,0,0,0.012,0
		c1.721,3.47,4.877,6.003,8.65,6.94c3.731,0.938,7.712,0.229,10.91-2.042l0.908-0.646l3.491,5.253l-18.958,111.939
		c-0.01,0.083-0.029,0.177-0.029,0.261c-0.543,3.95,0.677,8.015,3.281,10.88l16.841,18.53H359.113L359.113,554.182z
		 M418.255,525.584l18.021-106.427h8.44l18.011,106.427l-22.23,24.46L418.255,525.584z"/>
</g>
</svg>
