<svg height='300px' width='300px'  fill="#000000" xmlns="http://www.w3.org/2000/svg" xmlns:xlink="http://www.w3.org/1999/xlink" version="1.1" x="0px" y="0px" viewBox="0 0 64 64" style="enable-background:new 0 0 64 64;" xml:space="preserve"><g><path d="M29,46c0-0.266-0.105-0.52-0.293-0.707L17.535,34.121C16.812,33.398,15.851,33,14.829,33c-0.285,0-0.561,0.036-0.829,0.096   V24c0-2.206-1.794-4-4-4s-4,1.794-4,4v17c0,0.23,0.08,0.454,0.226,0.633L15,52.357V61h-2v2h18v-2h-2V46z M16.774,51.367L8,40.643   V24c0-1.103,0.897-2,2-2s2,0.897,2,2v10.271c-0.615,0.679-1,1.571-1,2.557c0,1.023,0.398,1.984,1.122,2.707l5.171,5.172   l1.414-1.414l-5.172-5.172C13.195,37.78,13,37.31,13,36.828C13,35.82,13.82,35,14.829,35c0.488,0,0.948,0.19,1.293,0.535L27,46.414   V61H17v-9C17,51.77,16.92,51.546,16.774,51.367z"></path><path d="M54,20c-2.206,0-4,1.794-4,4v9.096C49.732,33.036,49.457,33,49.171,33c-1.022,0-1.983,0.398-2.707,1.121L35.293,45.293   C35.105,45.48,35,45.734,35,46v15h-2v2h18v-2h-2v-8.643l8.774-10.725C57.92,41.454,58,41.23,58,41V24C58,21.794,56.206,20,54,20z    M56,40.643l-8.774,10.725C47.08,51.546,47,51.77,47,52v9H37V46.414l10.878-10.879C48.224,35.19,48.683,35,49.171,35   C50.18,35,51,35.82,51,36.828c0,0.481-0.195,0.952-0.536,1.293l-5.171,5.172l1.414,1.414l5.171-5.172   C52.602,38.812,53,37.852,53,36.828c0-0.986-0.385-1.878-1-2.557V24c0-1.103,0.897-2,2-2s2,0.897,2,2V40.643z"></path><path d="M20,15.414V31c0,0.552,0.448,1,1,1h22c0.552,0,1-0.448,1-1V15.414l2.293,2.293l1.414-1.414l-15-15   c-0.391-0.391-1.023-0.391-1.414,0l-15,15l1.414,1.414L20,15.414z M32,3.414l10,10V30H22V13.414L32,3.414z"></path><path d="M25.122,21.536l6.171,6.171C31.488,27.902,31.744,28,32,28s0.512-0.098,0.707-0.293l6.171-6.171   C39.602,20.812,40,19.851,40,18.829C40,16.717,38.283,15,36.171,15c-1.022,0-1.984,0.398-2.707,1.122L32,17.586l-1.464-1.464   C29.812,15.398,28.851,15,27.829,15C25.717,15,24,16.717,24,18.829C24,19.851,24.398,20.812,25.122,21.536z M27.829,17   c0.488,0,0.947,0.19,1.293,0.536l2.171,2.171c0.391,0.391,1.023,0.391,1.414,0l2.171-2.171C35.224,17.19,35.683,17,36.171,17   C37.18,17,38,17.82,38,18.829c0,0.488-0.19,0.947-0.536,1.293L32,25.586l-5.464-5.464C26.19,19.776,26,19.317,26,18.829   C26,17.82,26.82,17,27.829,17z"></path></g></svg>