<?xml version="1.0" encoding="utf-8"?>
<!-- Generator: Adobe Illustrator 16.0.0, SVG Export Plug-In . SVG Version: 6.00 Build 0)  -->
<!DOCTYPE svg PUBLIC "-//W3C//DTD SVG 1.1//EN" "http://www.w3.org/Graphics/SVG/1.1/DTD/svg11.dtd">
<svg version="1.1" id="Layer_1" xmlns="http://www.w3.org/2000/svg" xmlns:xlink="http://www.w3.org/1999/xlink" x="0px" y="0px"
	 width="600px" height="600px" viewBox="0 0 600 600" enable-background="new 0 0 600 600" xml:space="preserve">
<g>
	<g>
		<path d="M536.859,461.373c-0.051-0.113-0.103-0.226-0.145-0.339c-10.683-25.007-35.741-34.252-65.408-24.123l-80.892,22.369
			c-4.678-14.161-16.35-26.21-32.844-32.335c-0.102-0.039-0.204-0.072-0.308-0.108l-88.923-30.18
			c-7.394-9.57-30.582-34.045-73.983-34.045c-30.344,0-57.172,20.806-72.524,43.489H14.351c-6.405,0-11.6,5.2-11.6,11.611v146.394
			c0,6.417,5.194,11.609,11.6,11.609h69.037c6.417,0,11.619-5.192,11.619-11.609v-10.025h32.37c6.406,0,11.619-5.203,11.619-11.609
			v-3.342c18.869,1.646,25.069,5.224,42.406,15.224c13.324,7.686,33.479,19.295,69.756,35.614c0.175,0.076,0.329,0.148,0.514,0.216
			c6.963,2.734,20.576,7.043,37.357,7.043c11.68,0,24.903-2.087,38.466-8.236l178.804-64.02c0.329-0.118,0.639-0.246,0.947-0.385
			C524.336,516.714,549.796,494.565,536.859,461.373z M71.788,552.498H25.97V429.32h45.818V552.498z M115.767,530.863h-20.76
			V429.325h20.76V530.863z M497.959,503.285l-178.73,63.988c-0.153,0.062-0.359,0.145-0.504,0.206
			c-0.165,0.062-0.318,0.134-0.473,0.195c-24.894,11.444-48.566,4.597-57.828,0.987c-35.043-15.764-53.749-26.55-67.425-34.438
			c-18.992-10.95-28.153-16.234-54.003-18.363v-93.525c10.992-18.036,32.339-36.503,55.361-36.503
			c39.465,0,56.184,25.665,56.842,26.701c1.409,2.309,3.6,4.046,6.159,4.909l92.274,31.329
			c14.737,5.526,22.531,18.143,18.941,30.733c-1.655,5.816-5.45,10.639-10.744,13.579c-5.223,2.91-11.281,3.635-17.05,2.035
			l-104.027-32.966c-6.108-1.933-12.638,1.45-14.582,7.568c-1.934,6.108,1.45,12.638,7.569,14.571l104.214,33.027
			c0.112,0.03,0.214,0.066,0.329,0.098c4.153,1.182,8.391,1.768,12.605,1.768c7.711,0,15.331-1.958,22.25-5.814
			c10.695-5.963,18.428-15.732,21.779-27.506c0.268-0.945,0.506-1.882,0.701-2.827l87.195-24.154
			c12.586-4.295,29.121-5.851,36.482,11.096C522.905,489.882,503.111,500.828,497.959,503.285z"/>
	</g>
</g>
<g>
	<g>
		<path d="M585.639,42.098h-69.037c-6.416,0-11.619,5.198-11.619,11.615v10.022h-32.379c-6.405,0-11.609,5.198-11.609,11.612v3.342
			c-18.867-1.65-25.078-5.229-42.404-15.221c-13.327-7.688-33.48-19.306-69.757-35.622c-0.177-0.074-0.351-0.144-0.524-0.21
			c-11.806-4.651-42.756-13.794-75.814,1.188l-46.723,16.732L186.388,6.177c-4.544-4.537-11.876-4.537-16.431,0L40.664,135.478
			c-4.187,4.183-4.997,11.431,0,16.421l220.941,220.944c3.547,3.543,11.824,4.609,16.42,0L396.08,254.804
			c3.076,0.262,6.253,0.403,9.554,0.403c30.344,0,57.171-20.811,72.522-43.489h107.482c6.408,0,11.61-5.2,11.61-11.612V53.713
			C597.249,47.296,592.047,42.098,585.639,42.098z M178.163,30.806l26.477,26.465c-7.866,4.863-16.966,7.47-26.477,7.47
			c-9.492,0-18.592-2.607-26.458-7.47L178.163,30.806z M91.757,170.15L65.3,143.688l26.457-26.464
			c4.865,7.864,7.465,16.961,7.465,26.464C99.222,153.187,96.622,162.284,91.757,170.15z M269.83,348.211l-26.465-26.459
			c16.152-9.967,36.76-9.967,52.923,0L269.83,348.211z M313.018,305.029c-25.674-18.615-60.728-18.615-86.383,0L108.477,186.878
			c9.08-12.468,13.975-27.453,13.975-43.19c0-15.747-4.895-30.723-13.975-43.2l26.499-26.49
			c12.472,9.07,27.455,13.964,43.196,13.964c15.753,0,30.715-4.895,43.187-13.964l25.12,25.12
			c-5.419,0.797-10.704,2.581-15.628,5.327c-8.318,4.64-14.85,11.583-18.921,19.987c-13.089,2.427-25.224,8.766-34.734,18.277
			c-25.8,25.807-25.8,67.796,0,93.605c12.895,12.905,29.851,19.349,46.797,19.349c16.955,0,33.901-6.444,46.807-19.349
			c8.4-8.394,14.282-18.714,17.222-29.956l39.207,13.306c-4.41,20.444,0.104,41.953,12.298,58.842L313.018,305.029z
			 M242.418,190.873c0.102,0.036,0.206,0.074,0.308,0.11l23.219,7.879c-1.758,7.915-5.716,15.19-11.558,21.033
			c-16.762,16.748-44.01,16.75-60.77,0c-16.762-16.755-16.762-44.01,0-60.765c4.041-4.043,8.802-7.203,14.004-9.344
			C209.771,167.624,222.613,183.522,242.418,190.873z M356.266,261.779c-4.493-7.304-7.023-15.64-7.424-24.149
			c5.563,4.023,12.361,7.964,20.484,11.087L356.266,261.779z M460.994,195.476c-11.002,18.041-32.348,36.505-55.36,36.505
			c-4.298,0-8.329-0.303-12.124-0.853c0,0-0.021,0-0.031-0.002c-25.078-3.643-38.559-17.897-43.012-23.542
			c-0.237-0.345-1.243-1.668-1.398-1.885c-1.348-2.418-3.567-4.359-6.395-5.321l-92.317-31.334
			c-14.734-5.531-22.521-18.144-18.952-30.729c0-0.007,0-0.016,0-0.021c0.011-0.007,0.011-0.02,0.011-0.031
			c1.666-5.793,5.48-10.599,10.746-13.537c5.224-2.913,11.269-3.635,17.038-2.039l104.029,32.966
			c6.116,1.941,12.647-1.447,14.59-7.563c1.923-6.111-1.45-12.635-7.578-14.576l-82.733-26.22l-0.72-0.721
			c-0.011-0.009-0.011-0.013-0.021-0.023L243.93,63.721l36.821-13.182c0.123-0.049,0.268-0.103,0.401-0.157
			c0.04-0.01,0.093-0.036,0.123-0.046c0.145-0.064,0.31-0.136,0.463-0.201c24.895-11.439,48.544-4.591,57.819-0.989
			c35.054,15.776,53.757,26.557,67.433,34.434c18.992,10.959,28.153,16.242,54.004,18.375V195.476z M504.982,188.492h-20.76V86.957
			h20.76V188.492z M574.021,188.492h-45.819V65.32h45.819V188.492z"/>
	</g>
</g>
</svg>
