<?xml version="1.0" encoding="utf-8"?>
<!-- Generator: Adobe Illustrator 16.0.0, SVG Export Plug-In . SVG Version: 6.00 Build 0)  -->
<!DOCTYPE svg PUBLIC "-//W3C//DTD SVG 1.1//EN" "http://www.w3.org/Graphics/SVG/1.1/DTD/svg11.dtd">
<svg version="1.1" id="Layer_1" xmlns="http://www.w3.org/2000/svg" xmlns:xlink="http://www.w3.org/1999/xlink" x="0px" y="0px"
	 width="600px" height="600px" viewBox="0 0 600 600" enable-background="new 0 0 600 600" xml:space="preserve">
<g>
	<g>
		<path d="M508.582,100.152c-54.486-56.881-129.888-88.98-208.672-88.837C140.715,11.112,11.498,140.001,11.304,299.204
			c-0.103,78.719,31.995,154.052,88.835,208.504c0.168,0.17,0.22,0.415,0.389,0.559c1.674,1.608,3.485,2.97,5.179,4.519
			c4.637,4.12,9.273,8.393,14.163,12.369c2.613,2.064,5.337,4.12,8.02,6.016c4.619,3.443,9.23,6.887,14.061,10.067
			c3.277,2.057,6.652,4.121,10.018,6.177c4.45,2.682,8.885,5.382,13.479,7.835c3.899,2.064,7.877,3.841,11.839,5.71
			c4.321,2.064,8.595,4.121,13.026,5.982c4.424,1.853,8.885,3.3,13.368,4.907c4.501,1.606,8.376,3.088,12.683,4.407
			c4.867,1.465,9.855,2.598,14.797,3.815c4.131,1.008,8.123,2.167,12.371,2.987c5.691,1.134,11.465,1.854,17.242,2.64
			c3.563,0.491,7.041,1.202,10.65,1.549c9.443,0.922,18.962,1.438,28.572,1.438c9.611,0,19.137-0.517,28.572-1.438
			c3.613-0.347,7.1-1.058,10.658-1.549c5.773-0.786,11.543-1.506,17.235-2.64c4.12-0.82,8.243-2.056,12.37-2.987
			c4.941-1.218,9.934-2.351,14.798-3.815c4.307-1.319,8.471-2.927,12.683-4.407c4.197-1.489,8.983-3.097,13.375-4.907
			c4.391-1.819,8.697-3.943,13.023-5.982c3.958-1.869,7.942-3.646,11.842-5.71c4.586-2.453,9.021-5.153,13.479-7.835
			c3.361-2.056,6.744-3.934,10.01-6.177c4.831-3.172,9.449-6.624,14.061-10.067c2.69-2.057,5.399-3.918,8.023-6.016
			c4.891-3.918,9.527-8.08,14.164-12.369c1.689-1.549,3.5-2.91,5.175-4.519c0.169-0.144,0.22-0.389,0.389-0.559
			C614.816,397.585,618.723,215.106,508.582,100.152z M462.254,486.126c-3.749,3.3-7.623,6.438-11.542,9.468
			c-2.31,1.768-4.618,3.527-6.989,5.219c-3.729,2.7-7.529,5.255-11.378,7.709c-2.8,1.793-5.671,3.527-8.556,5.211
			c-3.635,2.064-7.326,4.129-11.047,6.185c-3.299,1.692-6.66,3.283-10.043,4.849c-3.376,1.564-7.115,3.231-10.762,4.695
			c-3.646,1.463-7.521,2.842-11.338,4.121c-3.479,1.2-6.963,2.436-10.49,3.485c-4.123,1.243-8.438,2.251-12.7,3.273
			c-3.343,0.787-6.634,1.676-10.018,2.335c-4.89,0.948-9.874,1.607-14.882,2.285c-2.852,0.372-5.67,0.888-8.536,1.184
			c-7.921,0.754-15.94,1.211-24.038,1.211c-8.097,0-16.117-0.457-24.037-1.211c-2.867-0.296-5.686-0.812-8.537-1.184
			c-5.007-0.678-9.992-1.337-14.881-2.285c-3.384-0.659-6.683-1.548-10.018-2.335c-4.264-1.022-8.512-2.056-12.697-3.273
			c-3.53-1.05-7.016-2.285-10.502-3.485c-3.809-1.313-7.613-2.658-11.337-4.121c-3.706-1.464-7.21-3.071-10.755-4.695
			c-3.544-1.633-6.74-3.156-10.043-4.849c-3.73-1.938-7.418-3.977-11.047-6.185c-2.885-1.684-5.755-3.418-8.555-5.211
			c-3.856-2.454-7.65-5.009-11.378-7.709c-2.372-1.691-4.688-3.451-6.99-5.219c-3.918-3.03-7.8-6.186-11.538-9.468
			c-0.917-0.678-1.745-1.549-2.625-2.327c0.924-70.13,45.975-132.045,112.407-154.508c33.227,15.805,71.798,15.805,105.014,0
			c66.442,22.463,111.494,84.378,112.418,154.508C463.963,484.577,463.142,485.364,462.254,486.126z M228.027,176.603
			c22.319-39.697,72.594-53.785,112.29-31.466s53.786,72.601,31.468,112.289c-7.404,13.174-18.295,24.054-31.468,31.466
			c-0.099,0-0.228,0-0.355,0.118c-5.465,3.046-11.234,5.491-17.224,7.302c-1.074,0.304-2.063,0.72-3.2,0.989
			c-2.063,0.533-4.229,0.905-6.345,1.277c-4.002,0.694-8.045,1.109-12.1,1.219h-2.35c-4.061-0.109-8.107-0.524-12.11-1.219
			c-2.052-0.372-4.237-0.744-6.345-1.277c-1.088-0.27-2.063-0.686-3.196-0.989c-5.981-1.811-11.77-4.256-17.234-7.302l-0.374-0.118
			C219.788,266.572,205.709,216.291,228.027,176.603z M501.408,442.925L501.408,442.925
			c-13.232-61.703-53.867-114.015-110.376-142.096c46.194-50.323,42.853-128.567-7.47-174.763
			c-50.315-46.194-128.568-42.853-174.764,7.471c-43.428,47.303-43.428,119.979,0,167.292
			c-56.51,28.081-97.137,80.393-110.369,142.096c-79.055-111.35-52.861-265.697,58.479-344.744
			c111.344-79.048,265.697-52.87,344.738,58.479c29.712,41.854,45.671,91.925,45.646,143.255
			C547.292,351.204,531.241,401.206,501.408,442.925z"/>
	</g>
</g>
</svg>
