<svg height='300px' width='300px'  fill="#000000" xmlns="http://www.w3.org/2000/svg" xmlns:xlink="http://www.w3.org/1999/xlink" viewBox="0 0 30 30" version="1.1" x="0px" y="0px"><title>Suspense</title><desc>Created with Sketch.</desc><g stroke="none" stroke-width="1" fill="none" fill-rule="evenodd"><path d="M22.0521931,19.9308728 L26.0606602,23.9393398 L23.9393398,26.0606602 L19.9308728,22.0521931 C18.2715525,23.2764137 16.2202775,24 14,24 C8.4771525,24 4,19.5228475 4,14 C4,8.4771525 8.4771525,4 14,4 C19.5228475,4 24,8.4771525 24,14 C24,16.2202775 23.2764137,18.2715525 22.0521931,19.9308728 Z M14,21 C17.8659932,21 21,17.8659932 21,14 C21,10.1340068 17.8659932,7 14,7 C10.1340068,7 7,10.1340068 7,14 C7,17.8659932 10.1340068,21 14,21 Z" fill="#000000"></path><path d="M13.222811,16.144 L12.8979788,13.856051 L12.9685945,13.7854352 C14.7481104,13.7148195 15.4401444,13.2487558 15.4401444,12.5002293 L15.4401444,12.471983 C15.4401444,11.8364416 14.9599575,11.4692399 14.1408153,11.4692399 C13.3499193,11.4692399 12.6720085,11.7940722 12.0223439,12.4437367 L10.7230149,11.0172994 C11.5421571,10.1134183 12.6437622,9.492 14.1831847,9.492 C16.2169172,9.492 17.6009851,10.5371125 17.6009851,12.4154904 L17.6009851,12.4437367 C17.6009851,14.2373758 16.3581486,14.9717792 14.8187261,15.2824883 L14.6633715,16.144 L13.222811,16.144 Z M12.718925,19.246 L12.718925,16.834 L15.161075,16.834 L15.161075,19.246 L12.718925,19.246 Z" fill="#000000"></path></g></svg>