<?xml version="1.0" encoding="utf-8"?>
<!-- Generator: Adobe Illustrator 16.0.0, SVG Export Plug-In . SVG Version: 6.00 Build 0)  -->
<!DOCTYPE svg PUBLIC "-//W3C//DTD SVG 1.1//EN" "http://www.w3.org/Graphics/SVG/1.1/DTD/svg11.dtd">
<svg version="1.1" id="Layer_1" xmlns="http://www.w3.org/2000/svg" xmlns:xlink="http://www.w3.org/1999/xlink" x="0px" y="0px"
	 width="600px" height="600px" viewBox="0 0 600 600" enable-background="new 0 0 600 600" xml:space="preserve">
<path d="M81.627,161.037h99.268v75.3l-36.793,36.793c-1.875,1.867-2.92,4.384-2.92,7.026v129.025c0,1.14,0.201,2.278,0.594,3.331
	l49.045,137.344v37.999c0,5.485,4.432,9.926,9.926,9.926h119.109c5.477,0,9.926-4.44,9.926-9.926V438.959
	c0-1.33-0.277-2.67-0.803-3.905l-23.854-55.649h104.064c5.475,0,9.926-4.441,9.926-9.916V161.037h99.268V81.63h19.842V2.219H61.775
	V81.63h19.852V161.037z M309.922,577.93h-99.268v-19.852h99.268V577.93z M309.922,538.227H207.695l-46.652-130.748V284.253
	l19.852-19.843v105.078c0,5.475,4.432,9.916,9.926,9.916h39.693v39.713h19.861V319.85c0-5.475,4.441-9.926,9.926-9.926h9.926
	c5.486,0,9.926,4.451,9.926,9.926v49.639c-0.008,1.34,0.27,2.67,0.795,3.905l28.975,67.604V538.227z M399.254,359.563h-99.258
	V319.85c0-16.444-13.334-29.777-29.77-29.777h-9.926c-7.359,0.019-14.424,2.785-19.852,7.743v-17.659h-19.861v59.545h9.926v19.861
	h-29.768V121.324h19.842v138.971h19.861v-96.54c15.01,17.19,36.727,27.06,59.547,27.06c22.828,0,44.545-9.869,59.555-27.06v96.54
	h19.852V121.324h19.852V359.563z M241.264,121.324h117.463c-4.814,28.686-29.643,49.687-58.73,49.687
	C270.916,171.011,246.088,150.01,241.264,121.324z M498.521,141.185h-79.406v-19.86h19.842v-19.843H161.043v19.843h19.852v19.86
	h-79.416V81.63h397.043V141.185z M81.627,22.075h436.756V61.77H81.627V22.075z"/>
</svg>
