<svg xmlns="http://www.w3.org/2000/svg" viewBox="0 0 25.12 25.12">
  <g id="Layer_2" data-name="Layer 2">
    <g id="Layer_1-2" data-name="Layer 1">
      <g>
        <path d="M12.56,8.88a3.68,3.68,0,1,0,3.68,3.68,3.68,3.68,0,0,0-3.68-3.68Z" style="fill: #0b050c"/>
        <path d="M12.56,17.71a5.15,5.15,0,1,1,5.15-5.15,5.16,5.16,0,0,1-5.15,5.15Zm12.56-3.07V10.49l-3.4-.67A9.68,9.68,0,0,0,21,8l1.91-2.85L19.94,2.25l-2.85,1.9a8.92,8.92,0,0,0-1.78-.74L14.64,0H10.49L9.81,3.41A9.17,9.17,0,0,0,8,4.15L5.18,2.25,2.25,5.18,4.15,8a9,9,0,0,0-.74,1.79L0,10.49v4.15l3.41.67a8.92,8.92,0,0,0,.74,1.78l-1.9,2.85,2.93,2.94L8,21a10.62,10.62,0,0,0,1.78.74l.68,3.4h4.15l.67-3.4A10.28,10.28,0,0,0,17.09,21l2.85,1.9,2.94-2.94L21,17.09a9.59,9.59,0,0,0,.75-1.78l3.4-.67Z" style="fill: #0b050c"/>
      </g>
    </g>
  </g>
</svg>
