<svg xmlns="http://www.w3.org/2000/svg" viewBox="0 0 33.82 33.82">
  <g id="Layer_2" data-name="Layer 2">
    <g id="Layer_1-2" data-name="Layer 1">
      <g>
        <g>
          <path d="M23.64,22.64h0V17.71c0-2.42-.52-4.28-3.34-4.28a2.92,2.92,0,0,0-2.64,1.45h0V13.65H14.94v9h2.79V18.19c0-1.17.22-2.31,1.67-2.31s1.45,1.34,1.45,2.39v4.37Z" style="fill: #fff"/>
          <rect x="10.4" y="13.65" width="2.79" height="8.99" style="fill: #fff"/>
          <path d="M11.79,9.18a1.62,1.62,0,1,0,1.62,1.62,1.61,1.61,0,0,0-1.62-1.62Z" style="fill: #fff"/>
        </g>
        <path d="M33.32,16.91A16.41,16.41,0,1,1,16.91.5,16.41,16.41,0,0,1,33.32,16.91Z" style="fill: none;stroke: #fff;stroke-miterlimit: 10"/>
      </g>
    </g>
  </g>
</svg>
