<?xml version="1.0" encoding="utf-8"?>
<!-- Generator: Adobe Illustrator 25.0.0, SVG Export Plug-In . SVG Version: 6.00 Build 0)  -->
<svg version="1.1" id="Layer_1" xmlns="http://www.w3.org/2000/svg" xmlns:xlink="http://www.w3.org/1999/xlink" x="0px" y="0px"
	 viewBox="0 0 20 20" style="enable-background:new 0 0 20 20;" xml:space="preserve">
<path d="M18,6.8l-5.3-5.3c-0.2-0.2-0.4-0.3-0.7-0.3s-0.5,0.1-0.7,0.3L11,1.8c-0.3,0.3-0.5,0.8-0.5,1.2v1c0,0.1-0.1,0.4-0.2,0.5
	L7.5,7.3C7.4,7.4,7.1,7.5,7,7.5H6C5.6,7.5,5.1,7.7,4.8,8L4.5,8.3c-0.4,0.4-0.4,1,0,1.4l1.6,1.6l-4.9,6.4c-0.2,0.2-0.1,0.5,0,0.7
	c0.1,0.1,0.2,0.1,0.4,0.1c0.1,0,0.2,0,0.3-0.1l6.4-4.9L9.8,15c0.2,0.2,0.4,0.3,0.7,0.3s0.5-0.1,0.7-0.3l0.3-0.3
	c0.3-0.3,0.5-0.8,0.5-1.2v-1c0-0.1,0.1-0.4,0.2-0.5L15,9.2C15.1,9.1,15.4,9,15.5,9h1c0.4,0,0.9-0.2,1.2-0.5L18,8.2
	c0.2-0.2,0.3-0.4,0.3-0.7S18.2,7,18,6.8L18,6.8z"/>
<polygon points="4.2,15.3 6.8,12 7.5,12.7 "/>
<path d="M17,7.8C16.9,7.9,16.6,8,16.5,8h-1c-0.4,0-0.9,0.2-1.2,0.5l-2.8,2.8c-0.3,0.3-0.5,0.8-0.5,1.2v1c0,0.1-0.1,0.4-0.2,0.5
	l-0.3,0.3h0v0L5.2,9l0.3-0.3C5.6,8.6,5.9,8.5,6,8.5h1c0.4,0,0.9-0.2,1.2-0.5L11,5.2c0.3-0.3,0.5-0.8,0.5-1.2V3
	c0-0.1,0.1-0.4,0.2-0.5L12,2.2l5.3,5.3L17,7.8z"/>
</svg>
