<svg xmlns="http://www.w3.org/2000/svg" viewBox="0 0 26.26 25.12">
  <g id="Layer_2" data-name="Layer 2">
    <g id="Layer_1-2" data-name="Layer 1">
      <path d="M25.41,11.71H10.92L14,8.6a.86.86,0,0,0-1.21-1.21L8.24,12l0,0-.06.07a.3.3,0,0,0,0,.08.25.25,0,0,0,0,.07.24.24,0,0,0,0,.08l0,.08a.38.38,0,0,0,0,.1s0,0,0,.07,0,.06,0,.1a.2.2,0,0,0,0,.07l0,.11s0,0,0,.05a.3.3,0,0,0,.06.11l0,0a.76.76,0,0,0,.11.14l4.56,4.56a.87.87,0,0,0,.61.26.87.87,0,0,0,.6-1.47l-3.1-3.1H25.41a.86.86,0,0,0,.85-.86A.85.85,0,0,0,25.41,11.71Z"/>
      <path d="M12.56,25.12A12.56,12.56,0,1,1,24.25,8a.85.85,0,1,1-1.59.62,10.85,10.85,0,1,0,0,7.94.86.86,0,0,1,1.59.63,12.49,12.49,0,0,1-11.69,8Z"/>
    </g>
  </g>
</svg>
