<svg xmlns="http://www.w3.org/2000/svg" viewBox="0 0 52.69 36.86">
  <g id="Layer_2" data-name="Layer 2">
    <g id="Layer_1-2" data-name="Layer 1">
      <g>
        <path d="M49.12,7.73l-5.27,0a.78.78,0,0,0-.22,0,1.77,1.77,0,0,0-1.54-.9H40.77A11.7,11.7,0,0,1,31.7,2.55a7,7,0,0,0-10.88.08,11.71,11.71,0,0,1-9,4.5H10.5A1.77,1.77,0,0,0,9,8.06a.78.78,0,0,0-.22,0l-5.27,0A3.5,3.5,0,0,0,0,11.61L0,16A9.35,9.35,0,0,0,4.3,23.54a10.89,10.89,0,0,0,5.92,2,16.39,16.39,0,0,1-.65-1.82,8.6,8.6,0,0,1-4.26-1.63A7.65,7.65,0,0,1,1.79,16l0-4.39A1.77,1.77,0,0,1,3.5,9.82l5.26,0a.86.86,0,0,0,.87-.88h0l2.64,0A14.73,14.73,0,0,0,23.54,3.07,3.49,3.49,0,0,1,29,3,14.73,14.73,0,0,0,40.35,8.66H43a.88.88,0,0,0,.88.87l5.27,0a1.75,1.75,0,0,1,1.77,1.74l0,4.39a8,8,0,0,1-4.23,6.7,8.2,8.2,0,0,1-3.44,1.2,18.32,18.32,0,0,1-.61,1.81,10.78,10.78,0,0,0,4.93-1.49,9.68,9.68,0,0,0,5.11-8.23l0-4.39A3.49,3.49,0,0,0,49.12,7.73Z" style="fill: #26b697"/>
        <path d="M37.54,24.11a.88.88,0,0,1,.88-1.52,8.14,8.14,0,0,0,4.84.92,18.35,18.35,0,0,0,.67-5.21l-.06-7.9H40.36A14.7,14.7,0,0,1,29,4.78a3.5,3.5,0,0,0-5.44,0,14.67,14.67,0,0,1-11.27,5.8l-3.51,0,.06,7.9a18.48,18.48,0,0,0,.74,5.18,8.54,8.54,0,0,0,3.54-.36.88.88,0,0,1,.88.15.86.86,0,0,1,.3.84.88.88,0,0,1-.59.67,9.51,9.51,0,0,1-3.08.54l-.4,0A18.32,18.32,0,0,0,25.16,36.79a11.79,11.79,0,0,0,2.72,0A18.35,18.35,0,0,0,42.65,25.32l-.4,0A9.16,9.16,0,0,1,37.54,24.11ZM14.09,14.88a.87.87,0,0,1,1-.74A74.45,74.45,0,0,0,37.62,14a.87.87,0,0,1,.83.3.88.88,0,0,1-.55,1.43,75.48,75.48,0,0,1-11.53,1,75.8,75.8,0,0,1-11.56-.8A.87.87,0,0,1,14.09,14.88Zm0,5.59a.85.85,0,0,1,.25-.84.89.89,0,0,1,.85-.2,37.29,37.29,0,0,0,22.3-.17.88.88,0,0,1,1.13,1,.87.87,0,0,1-.59.65A38.8,38.8,0,0,1,26.41,22.8a39.12,39.12,0,0,1-11.68-1.69A.88.88,0,0,1,14.13,20.47ZM38.23,27a27.26,27.26,0,0,1-11.76,2.8,27.23,27.23,0,0,1-11.81-2.63.87.87,0,1,1,.74-1.58,25.19,25.19,0,0,0,22.07-.17.9.9,0,0,1,.91,0,.92.92,0,0,1,.4.82A.89.89,0,0,1,38.23,27Z" style="fill: #26b697"/>
      </g>
    </g>
  </g>
</svg>
