<svg xmlns="http://www.w3.org/2000/svg" viewBox="0 0 33.82 33.82">
  <g id="Layer_2" data-name="Layer 2">
    <g id="Layer_1-2" data-name="Layer 1">
      <g>
        <path d="M25,11.92a7.23,7.23,0,0,1-1.9.52,3.27,3.27,0,0,0,1.45-1.83,6.39,6.39,0,0,1-2.09.8,3.33,3.33,0,0,0-2.41-1,3.3,3.3,0,0,0-3.3,3.3,3.08,3.08,0,0,0,.08.75A9.34,9.34,0,0,1,10,11a3.39,3.39,0,0,0-.45,1.67A3.31,3.31,0,0,0,11,15.38,3.17,3.17,0,0,1,9.5,15v0a3.33,3.33,0,0,0,2.65,3.25,3.46,3.46,0,0,1-.87.1,3.18,3.18,0,0,1-.62-.05,3.34,3.34,0,0,0,3.08,2.3A6.62,6.62,0,0,1,9.65,22,6.84,6.84,0,0,1,8.86,22a9.4,9.4,0,0,0,14.46-7.91c0-.15,0-.29,0-.43A6.55,6.55,0,0,0,25,11.92Z" style="fill: #fff"/>
        <path d="M33.32,16.91A16.41,16.41,0,1,1,16.91.5,16.41,16.41,0,0,1,33.32,16.91Z" style="fill: none;stroke: #fff;stroke-miterlimit: 10"/>
      </g>
    </g>
  </g>
</svg>
