<svg xmlns="http://www.w3.org/2000/svg" viewBox="0 0 16.45 18.98">
  <g id="Layer_2" data-name="Layer 2">
    <g id="Layer_1-2" data-name="Layer 1">
      <g>
        <g style="opacity: 0.9">
          <g style="isolation: isolate">
            <polygon points="8.27 9.51 16.45 4.75 16.42 14.22 8.24 18.98 8.27 9.51" style="fill: #971116"/>
            <polygon points="0.03 4.75 8.21 0 16.45 4.75 8.27 9.51 0.03 4.75" style="fill: #a91318"/>
            <polygon points="8.27 9.51 8.24 18.98 0 14.22 0.03 4.75 8.27 9.51" style="fill: #690c0f"/>
          </g>
        </g>
        <g style="opacity: 0.9">
          <g style="isolation: isolate">
            <polygon points="8.27 9.51 16.45 4.75 16.42 14.22 8.24 18.98 8.27 9.51" style="fill: #971116"/>
            <polygon points="0.03 4.75 8.21 0 16.45 4.75 8.27 9.51 0.03 4.75" style="fill: #a91318"/>
            <polygon points="8.27 9.51 8.24 18.98 0 14.22 0.03 4.75 8.27 9.51" style="fill: #690c0f"/>
          </g>
        </g>
      </g>
    </g>
  </g>
</svg>
