<svg xmlns="http://www.w3.org/2000/svg" viewBox="0 0 30.69 30.91">
  <g id="Layer_2" data-name="Layer 2">
    <g id="Layer_1-2" data-name="Layer 1">
      <g>
        <g style="opacity: 0.9">
          <g style="isolation: isolate">
            <polygon points="15.37 17.69 22.88 13.32 22.86 22.01 15.34 26.38 15.37 17.69" style="fill: #971116"/>
            <polygon points="7.81 13.32 15.32 8.96 22.88 13.32 15.37 17.69 7.81 13.32" style="fill: #a91318"/>
            <polygon points="15.37 17.69 15.34 26.38 7.78 22.01 7.81 13.32 15.37 17.69" style="fill: #690c0f"/>
          </g>
        </g>
        <g style="opacity: 0.9">
          <g style="isolation: isolate">
            <polygon points="15.37 8.73 22.88 4.37 22.86 13.05 15.34 17.42 15.37 8.73" style="fill: #971116"/>
            <polygon points="7.81 4.37 15.32 0 22.88 4.37 15.37 8.73 7.81 4.37" style="fill: #a91318"/>
            <polygon points="15.37 8.73 15.34 17.42 7.78 13.05 7.81 4.37 15.37 8.73" style="fill: #690c0f"/>
          </g>
        </g>
        <g style="opacity: 0.9">
          <g style="isolation: isolate">
            <polygon points="23.18 22.23 30.69 17.86 30.67 26.55 23.15 30.91 23.18 22.23" style="fill: #971116"/>
            <polygon points="15.62 17.86 23.13 13.49 30.69 17.86 23.18 22.23 15.62 17.86" style="fill: #a91318"/>
            <polygon points="23.18 22.23 23.15 30.91 15.59 26.55 15.62 17.86 23.18 22.23" style="fill: #690c0f"/>
          </g>
        </g>
        <g style="opacity: 0.9">
          <g style="isolation: isolate">
            <polygon points="7.59 22.23 15.1 17.86 15.07 26.55 7.56 30.91 7.59 22.23" style="fill: #971116"/>
            <polygon points="0.03 17.86 7.54 13.49 15.1 17.86 7.59 22.23 0.03 17.86" style="fill: #a91318"/>
            <polygon points="7.59 22.23 7.56 30.91 0 26.55 0.03 17.86 7.59 22.23" style="fill: #690c0f"/>
          </g>
        </g>
        <g style="opacity: 0.9">
          <g style="isolation: isolate">
            <polygon points="7.59 22.23 15.1 17.86 15.07 26.55 7.56 30.91 7.59 22.23" style="fill: #971116"/>
            <polygon points="0.03 17.86 7.54 13.49 15.1 17.86 7.59 22.23 0.03 17.86" style="fill: #a91318"/>
            <polygon points="7.59 22.23 7.56 30.91 0 26.55 0.03 17.86 7.59 22.23" style="fill: #690c0f"/>
          </g>
        </g>
      </g>
    </g>
  </g>
</svg>
