<svg xmlns="http://www.w3.org/2000/svg" width="511.999" height="512.369" viewBox="0 0 511.999 512.369">
  <g id="Group_60" data-name="Group 60" transform="translate(-4055.001 -877.001)">
    <g id="Group_59" data-name="Group 59" transform="translate(4055.001 877.001)">
      <path id="Path_75" data-name="Path 75" d="M1014.049,304.94C980.087,188.6,868.868,111.516,750.254,128.469,633.916,145.11,549.8,246.543,546.562,364.759A61.2,61.2,0,0,0,564,466.05c40.136,103.51,143.3,170.156,253.441,156.019l-2.419-18.859c-97.478,12.516-189.043-43.463-229.148-132.239a61.445,61.445,0,0,0,10.922-.512l2.248-.313c6.939-34.588,1.934-67.016-1.224-81.892,1.251,1.195,2.476,2.418,3.782,3.527,13.143,30.265,15.02,60.615,13,85.078,41.984,63.431,117.874,100.666,198.173,89.174,81.181-11.577,144.1-69.746,165.975-143.56-9.5-25.714-16.241-59.421-8.335-96.313,0,0-.143,44.914,21.988,87.439a61.273,61.273,0,0,0,21.646-108.659Zm-39.565-11.975c0-.427.029-.882,0-1.309-1.45-25.344-15.247-46.735-37.832-60.587a202.905,202.905,0,0,0-330.385,35.669c-10.04,7.68-17.806,16.583-22.868,26.368a79.938,79.938,0,0,0-7.025,56.633,62.444,62.444,0,0,0-10.895,3.129c8.418-103.68,84.2-190.806,187.449-205.569,104.079-14.876,201.958,48.64,238.424,147.144A61.558,61.558,0,0,0,974.483,292.965Z" transform="translate(-526.825 -126.135)" fill="#a11d2a"/>
      <path id="Path_76" data-name="Path 76" d="M579.784,159.792c-17.153,2.446-34.049.171-45.171-6.087l4.95-8.761c9.243,5.205,23.75,7.026,38.8,4.892,13.482-1.935,25.716-6.8,33.509-13.369l6.484,7.708C609.139,151.913,595.086,157.6,579.784,159.792Z" transform="translate(-313.061 157.423)" fill="#fff"/>
      <g id="Group_23" data-name="Group 23" transform="translate(205.882 324.412)">
        <path id="Path_77" data-name="Path 77" d="M541.256,230.236s-14.932-54.13,124.218-92.559C665.474,137.677,497.794,163.192,541.256,230.236Z" transform="translate(-534.062 -133.808)" fill="#fbef09"/>
        <path id="Path_78" data-name="Path 78" d="M612.447,217.613c-26.54,35.385-76.546,39.4-76.546,39.4,23.013,6.172,55.7,3.129,78.31-26.994,31.858-42.5,27.875-92.474,27.875-92.474S638.985,182.228,612.447,217.613Z" transform="translate(-483.595 -137.541)" fill="#fbef09"/>
      </g>
      <path id="Path_79" data-name="Path 79" d="M699.784,135.03C650.433,142.084,606,154.4,571.3,170.671c-11.747,5.518-27.363,15.218-35.157,30.322-16.953,32.74,2.446,61.3,3.271,62.521a58.826,58.826,0,0,0,65.906,22.414A752.08,752.08,0,0,1,828.552,253.36a58.841,58.841,0,0,0,43.664-18.347A57.668,57.668,0,0,0,888.2,191.55c-1.85-32.74-30.834-50.2-57.372-55.752C794.078,128.118,749.989,127.862,699.784,135.03Z" transform="translate(-461.193 -24.493)" fill="#fbef09"/>
      <path id="Path_80" data-name="Path 80" d="M620.983,166.966l-10.837,1.565a31.119,31.119,0,0,0-61.611,8.789l-10.81,1.565a41.891,41.891,0,0,1,35.728-47.19C596.408,128.4,617.742,144.239,620.983,166.966Z" transform="translate(-239.09 14.483)" fill="#a11d2a"/>
      <path id="Path_81" data-name="Path 81" d="M614.61,168.258,603.8,169.794a31.12,31.12,0,1,0-61.611,8.818l-10.839,1.536a42.051,42.051,0,0,1,83.258-11.89Z" transform="translate(-414.193 39.132)" fill="#a11d2a"/>
      <circle id="Ellipse_21" data-name="Ellipse 21" cx="26.09" cy="26.09" r="26.09" transform="translate(266.49 460.188)" fill="#a11d2a"/>
    </g>
  </g>
</svg>
