<svg xmlns="http://www.w3.org/2000/svg" xmlns:xlink="http://www.w3.org/1999/xlink" width="72" height="72" viewBox="0 0 72 72">
  <defs>
    <clipPath id="clip-path">
      <circle id="Ellipse_17" data-name="Ellipse 17" cx="36" cy="36" r="36" transform="translate(0.09 0.09)" fill="none"/>
    </clipPath>
  </defs>
  <g id="Group_535" data-name="Group 535" transform="translate(-188.674 -342.32)">
    <g id="Group_369" data-name="Group 369" transform="translate(188.584 342.23)" clip-path="url(#clip-path)">
      <circle id="Ellipse_16" data-name="Ellipse 16" cx="36" cy="36" r="36" transform="translate(0.09 0.09)" fill="#f0d682"/>
      <g id="Group_368" data-name="Group 368" transform="translate(18.802 13.268)">
        <path id="Path_133" data-name="Path 133" d="M254.308,422.334a.519.519,0,0,1-.654.592.574.574,0,0,1-.109.023c-6.885.195-13.77.335-20.655.5a69.341,69.341,0,0,1-9.089-.117c-1.043-.109-2.742-.054-3.466-.958-1.877-2.352.171-8.193,1.674-10.226a7.6,7.6,0,0,1,8.528-3.006,1.581,1.581,0,0,1,1.737-1.378,14.6,14.6,0,0,0-.389-2.781c-3.209-.942-5.958-2.632-7.485-5.919a20.03,20.03,0,0,1-1.573-5.678.107.107,0,0,1-.047.016,2.661,2.661,0,0,1-2.6-2.967,2.559,2.559,0,0,1,2.352-2.2c.008-1.558.094-3.076.195-4.517a7.826,7.826,0,0,1-4.011-7.835c.467-5.164,4.588-10.8,9.736-12.1,5.6-1.418,11.3,2.166,14.665,6.371,1.348-1.651,3.684-1.129,5,.624,2.648,3.544,2.337,10.389,2.165,14.571a3.15,3.15,0,0,1,2.679,2.976c.016,1.978-2.111,3.606-3.8,2.406.623,6.581-2.508,12.5-8,14.44.054.624.094,1.262.109,1.893a2.094,2.094,0,0,1,2.2,2.04c0,.093-.007.171-.007.257,2.484-1.651,5.194-.265,7.259,1.643C254.1,414.134,253.459,418.176,254.308,422.334Zm-1.075-.412c-.366-2.3-.225-4.712-.927-6.932-1.02-3.216-5.475-7.15-8.84-4.86a.269.269,0,0,1-.171.047c-.522,1.488-2.2,2.469-3.263,3.536a.425.425,0,0,1-.662-.086,6.218,6.218,0,0,0-1.729-1.706,58.273,58.273,0,0,1,1.488,10.3c.008.016,0,.031,0,.039C243.832,422.148,248.529,422.015,253.232,421.922Zm-4.05-31.831a1.89,1.89,0,0,0,2.921-1.767,1.95,1.95,0,0,0-3.006-1.753.334.334,0,0,1-.4-.522c.07-.077.148-.14.218-.21a.017.017,0,0,1-.016-.016c-2.617-3.015-5.8-7.1-4.876-11.34a.209.209,0,0,1,.117-.147c.148-.078.389.008.374.21-.327,4.463,2.843,7.29,4.907,10.833-.086-2.227-.054-4.455-.241-6.667a32.54,32.54,0,0,0-.569-4.33,6.685,6.685,0,0,0-.592-1.955q-.689-2.944-4.805-1.4a.273.273,0,0,1-.343.1.374.374,0,0,1-.358-.164c-3.669-4.634-10.507-8.606-16.278-5.172-4.673,2.773-9.486,11.543-4.478,16.068,5.763,5.194,11.161-3.061,14.72-6.332a7.334,7.334,0,0,1,6.783-2.009l-.008-.008c.031-.226.327-.156.389,0a.521.521,0,0,0,.062.109c.047.016.1.016.148.031a.189.189,0,0,1,.124.141l.109.023c.281.039.241.4.039.507a.26.26,0,0,1-.109.039.691.691,0,0,1-.631-.327c-7.633-.226-9.564,9.245-17.033,10.234a6.434,6.434,0,0,1-3.076-.319c.319,7.936-.117,17.43,9.074,20.1,9.961,2.9,16.558-3.785,15.982-13.746-.024-.4.444-.475.677-.242A.22.22,0,0,1,249.183,390.091Zm-6.581,19.19a1.239,1.239,0,0,0-1.331-1.347c-.008.093,0,.187,0,.288a.378.378,0,0,1-.405.366c-.732.771-1.526,1.488-2.313,2.2-.164.148-.35.343-.553.522a6.136,6.136,0,0,1,1.768,1.5c.639-.6,1.363-1.106,1.955-1.752A2.915,2.915,0,0,0,242.6,409.281Zm-2.1-1.448a24.044,24.044,0,0,1,.094-2.477,12.886,12.886,0,0,1-5.927.264c-.677-.117-1.34-.257-1.994-.42a7.048,7.048,0,0,1,.467,2.64h.016c.654.467,1.308.943,1.955,1.418.374.281,1.5,1.449,1.947,1.456,1.051.024,2.695-2.22,3.434-2.874A.007.007,0,0,1,240.5,407.833Zm-2.212,14.455c0-.024-.016-.039-.016-.063-.21-3.567-.693-7.08-1.223-10.608V411.6a1.18,1.18,0,0,1-.156-.039,3.274,3.274,0,0,0-1.184,2.328.425.425,0,0,1-.717.3c-.981-.771-1.986-1.526-2.952-2.313a3.858,3.858,0,0,1-1.464-1.838,2.746,2.746,0,0,1-.062-.35.067.067,0,0,1-.039,0,8.588,8.588,0,0,0-9.58,9.206c.374,4.634,7.313,3.637,10.522,3.567C233.707,422.413,236,422.35,238.287,422.288Zm-1.9-11.037c-.3-.225-.569-.506-.771-.662-.864-.709-1.729-1.418-2.578-2.142a.408.408,0,0,1-.592.054.365.365,0,0,1-.164.039c-1.8-.016-.584,1.893-.062,2.375.288.265.607.5.919.74l1.892,1.5A3.366,3.366,0,0,1,236.386,411.252Zm-13.652-18.637c-.132-1.23-.187-2.477-.2-3.715a2.144,2.144,0,0,0-1.479,1.589A1.982,1.982,0,0,0,222.734,392.614Z" transform="translate(-218.679 -363.467)" fill="#222221"/>
        <path id="Path_134" data-name="Path 134" d="M263.694,442.606c.7,2.22.56,4.634.927,6.932-4.7.093-9.4.226-14.1.342,0-.008.008-.023,0-.039a58.272,58.272,0,0,0-1.488-10.3,6.219,6.219,0,0,1,1.729,1.706.425.425,0,0,0,.662.086c1.066-1.067,2.741-2.049,3.263-3.536a.269.269,0,0,0,.171-.047C258.218,435.456,262.674,439.389,263.694,442.606Z" transform="translate(-230.067 -391.082)" fill="#fff"/>
        <path id="Path_135" data-name="Path 135" d="M254.861,394.666a1.89,1.89,0,0,1-2.921,1.768.22.22,0,0,0-.179-.031c-.234-.234-.7-.163-.677.242.576,9.961-6.02,16.644-15.982,13.746-9.19-2.671-8.754-12.166-9.074-20.1a6.436,6.436,0,0,0,3.076.319c7.469-.989,9.4-10.46,17.033-10.234a.691.691,0,0,0,.631.327.261.261,0,0,0,.109-.039l.016.016a.209.209,0,0,0-.117.147c-.927,4.237,2.259,8.326,4.876,11.34a.017.017,0,0,0,.016.016c-.07.07-.148.132-.218.21a.334.334,0,0,0,.4.522A1.95,1.95,0,0,1,254.861,394.666Zm-1.55-.4a.934.934,0,0,1-.5.9c-.241.172-.1.639.218.514a1.348,1.348,0,0,0-.63-2.586.215.215,0,0,0,0,.429A.928.928,0,0,1,253.311,394.268Zm-7.562,3.326c.81-.67-.179-1.955-1.013-1.488a.668.668,0,0,0-.4,1.113.361.361,0,0,0,.14.444.772.772,0,0,0,.639.117A.825.825,0,0,0,245.749,397.594Zm-2.08,6.7c.312-.428-.351-.864-.709-.545-2.383,2.126-5.179,2.469-7.726.335a.292.292,0,0,0-.413.413A5.715,5.715,0,0,0,243.669,404.292Zm-4.58-8.8c.039-.3-.452-.359-.514-.07-.14.67-.264,1.347-.4,2.025-.164.872-.187.857-.974,1.145a1.965,1.965,0,0,0-1.386,1.589c-.179,1.745,1.909,1.6,2.96,1.091a.421.421,0,0,0-.327-.763c-.53.179-1.1.5-1.488-.039-.358-.218-.358-.436,0-.647a.716.716,0,0,1,.53-.413,4.5,4.5,0,0,1,.911-.257.4.4,0,0,0,.3-.4C238.732,397.664,238.965,396.574,239.09,395.491Zm-6.784,1.479a.889.889,0,0,0,.242-1.012,1.105,1.105,0,0,0-.709-.491,1.145,1.145,0,0,0-1.409.833v.008a.79.79,0,0,0,.132.779A1.143,1.143,0,0,0,232.306,396.971Z" transform="translate(-221.437 -369.809)" fill="#ebd7be"/>
        <path id="Path_136" data-name="Path 136" d="M268.528,402.8a.861.861,0,0,0-.412-1.643.215.215,0,0,1,0-.429,1.348,1.348,0,0,1,.63,2.586C268.427,403.437,268.287,402.969,268.528,402.8Z" transform="translate(-237.153 -377.443)" fill="#222221"/>
        <path id="Path_137" data-name="Path 137" d="M249.745,379.33c.187,2.212.156,4.44.241,6.667-2.064-3.544-5.234-6.371-4.907-10.833.016-.2-.226-.288-.374-.21l-.016-.016c.2-.109.242-.467-.039-.507l-.109-.023a.189.189,0,0,0-.124-.141c-.047-.015-.1-.015-.148-.031a.517.517,0,0,1-.062-.109c-.062-.155-.358-.225-.389,0l.007.008a7.334,7.334,0,0,0-6.783,2.009c-3.559,3.271-8.957,11.526-14.72,6.332-5.008-4.525-.195-13.3,4.478-16.068,5.771-3.434,12.609.538,16.278,5.172a.374.374,0,0,0,.358.164.273.273,0,0,0,.343-.1q4.112-1.542,4.805,1.4a6.686,6.686,0,0,1,.592,1.955A32.56,32.56,0,0,1,249.745,379.33Z" transform="translate(-219.249 -364.085)" fill="#4c2b0a"/>
        <path id="Path_138" data-name="Path 138" d="M255.64,405.5c.833-.467,1.822.818,1.013,1.488a.824.824,0,0,1-.639.187.772.772,0,0,1-.639-.117.362.362,0,0,1-.14-.444.668.668,0,0,1,.4-1.113Z" transform="translate(-232.34 -379.2)" fill="#222221"/>
        <path id="Path_139" data-name="Path 139" d="M252.873,434.633a1.239,1.239,0,0,1,1.331,1.347,2.915,2.915,0,0,1-.88,1.768c-.592.647-1.316,1.153-1.955,1.753a6.136,6.136,0,0,0-1.768-1.5c.2-.179.389-.374.553-.522.787-.708,1.581-1.425,2.313-2.2a.378.378,0,0,0,.405-.366C252.873,434.82,252.865,434.726,252.873,434.633Z" transform="translate(-230.282 -390.166)" fill="#fff"/>
        <path id="Path_140" data-name="Path 140" d="M248.193,417.721c.358-.319,1.02.117.709.545a5.715,5.715,0,0,1-8.847.2.292.292,0,0,1,.413-.413C243.013,420.19,245.809,419.847,248.193,417.721Z" transform="translate(-226.669 -383.783)" fill="#222221"/>
        <path id="Path_141" data-name="Path 141" d="M249,430.421a24.063,24.063,0,0,0-.094,2.477.007.007,0,0,0-.007.008c-.74.654-2.383,2.9-3.434,2.874-.444-.007-1.574-1.176-1.947-1.456-.647-.475-1.3-.95-1.955-1.418h-.016a7.05,7.05,0,0,0-.467-2.64c.654.164,1.316.3,1.994.42A12.887,12.887,0,0,0,249,430.421Z" transform="translate(-227.083 -388.531)" fill="#ebd7be"/>
        <path id="Path_142" data-name="Path 142" d="M239.586,449.939c0,.023.016.039.016.063-2.29.062-4.58.124-6.869.171-3.209.07-10.148,1.067-10.522-3.567a8.588,8.588,0,0,1,9.58-9.206.067.067,0,0,0,.039,0,2.755,2.755,0,0,0,.063.35,3.858,3.858,0,0,0,1.464,1.838c.966.787,1.971,1.542,2.952,2.313a.425.425,0,0,0,.717-.3,3.274,3.274,0,0,1,1.184-2.328,1.186,1.186,0,0,0,.156.039v.016C238.893,442.859,239.376,446.372,239.586,449.939Z" transform="translate(-219.993 -391.18)" fill="#fff"/>
        <path id="Path_143" data-name="Path 143" d="M244.449,404.349c.063-.289.554-.226.514.07-.124,1.083-.358,2.173-.389,3.263a.4.4,0,0,1-.3.4,4.5,4.5,0,0,0-.911.257.716.716,0,0,0-.53.413c-.358.211-.358.429,0,.647.389.537.958.218,1.488.039a.421.421,0,0,1,.327.763c-1.051.506-3.139.654-2.96-1.091a1.965,1.965,0,0,1,1.386-1.589c.787-.288.81-.272.974-1.145C244.184,405.7,244.309,405.018,244.449,404.349Z" transform="translate(-227.31 -378.737)" fill="#222221"/>
        <path id="Path_144" data-name="Path 144" d="M243.215,437.606c.2.156.475.436.771.662a3.365,3.365,0,0,0-1.355,1.9l-1.892-1.5c-.312-.242-.631-.475-.919-.74-.522-.483-1.737-2.391.062-2.375a.365.365,0,0,0,.164-.039.408.408,0,0,0,.592-.054C241.486,436.188,242.351,436.9,243.215,437.606Z" transform="translate(-226.278 -390.482)" fill="#fff"/>
        <path id="Path_145" data-name="Path 145" d="M235.162,405.009a.89.89,0,0,1-.242,1.012,1.143,1.143,0,0,1-1.744.117.79.79,0,0,1-.132-.779v-.008a1.144,1.144,0,0,1,1.409-.833A1.105,1.105,0,0,1,235.162,405.009Z" transform="translate(-224.051 -378.859)" fill="#222221"/>
        <path id="Path_146" data-name="Path 146" d="M223.943,404.174c.016,1.238.071,2.485.2,3.715a1.982,1.982,0,0,1-1.682-2.126A2.144,2.144,0,0,1,223.943,404.174Z" transform="translate(-220.091 -378.741)" fill="#ebd7be"/>
      </g>
    </g>
  </g>
</svg>
